<svg xmlns:dc="http://purl.org/dc/elements/1.1/" xmlns:cc="http://creativecommons.org/ns#" xmlns:rdf="http://www.w3.org/1999/02/22-rdf-syntax-ns#" xmlns:svg="http://www.w3.org/2000/svg" xmlns="http://www.w3.org/2000/svg" xmlns:sodipodi="http://sodipodi.sourceforge.net/DTD/sodipodi-0.dtd" xmlns:inkscape="http://www.inkscape.org/namespaces/inkscape" version="1.1" x="0px" y="0px" viewBox="0 0 99.999997 99.999997" xml:space="preserve"><path style="font-size:medium;font-style:normal;font-variant:normal;font-weight:normal;font-stretch:normal;text-indent:0;text-align:start;text-decoration:none;line-height:normal;letter-spacing:normal;word-spacing:normal;text-transform:none;direction:ltr;block-progression:tb;writing-mode:lr-tb;text-anchor:start;baseline-shift:baseline;opacity:1;color:#000000;fill:#000000;fill-opacity:1;stroke:none;stroke-width:4;marker:none;visibility:visible;display:inline;overflow:visible;enable-background:accumulate;font-family:Sans;-inkscape-font-specification:Sans" d="M 25.03125 6 C 17.299286 6 11 12.299286 11 20.03125 L 11 79.96875 C 11 87.700714 17.299286 94 25.03125 94 L 74.96875 94 C 82.700714 94 89 87.700714 89 79.96875 L 89 20.03125 C 89 12.299286 82.700714 6 74.96875 6 L 25.03125 6 z M 25.03125 10 L 74.96875 10 C 80.553903 10 85 14.446097 85 20.03125 L 85 23 L 15 23 L 15 20.03125 C 15 14.446097 19.446097 10 25.03125 10 z M 25 12 C 22.262266 12 20 14.262266 20 17 C 20 19.737734 22.262266 22 25 22 C 27.737734 22 30 19.737734 30 17 C 30 14.262266 27.737734 12 25 12 z M 37 12 C 34.262266 12 32 14.262266 32 17 C 32 19.737734 34.262266 22 37 22 C 39.737734 22 42 19.737734 42 17 C 42 14.262266 39.737734 12 37 12 z M 25 16 C 25.575974 16 26 16.424026 26 17 C 26 17.575974 25.575974 18 25 18 C 24.424026 18 24 17.575974 24 17 C 24 16.424026 24.424026 16 25 16 z M 37 16 C 37.575974 16 38 16.424026 38 17 C 38 17.575974 37.575974 18 37 18 C 36.424026 18 36 17.575974 36 17 C 36 16.424026 36.424026 16 37 16 z M 15 27 L 85 27 L 85 79.96875 C 85 85.553903 80.553903 90 74.96875 90 L 25.03125 90 C 19.446097 90 15 85.553903 15 79.96875 L 15 27 z M 50 38 C 37.873425 38 28 47.873425 28 60 C 28 72.126575 37.873425 82 50 82 C 62.126575 82 72 72.126575 72 60 C 72 47.873425 62.126575 38 50 38 z M 50 42 C 59.384129 42 67.043868 49.128434 67.90625 58.28125 A 2.013868 2.013868 0 0 0 67.65625 58.5 C 65.098691 60.77744 63.017584 61.212579 60.5625 60.9375 C 58.107416 60.662421 55.315325 59.462764 52.25 58.15625 C 49.184675 56.849736 45.82916 55.456231 42.0625 55.09375 C 41.120835 55.00313 40.142189 54.964613 39.15625 55.03125 C 36.949599 55.180391 34.632119 55.76694 32.28125 56.9375 C 33.733963 48.445243 41.083847 42 50 42 z M 39.40625 59 C 40.163112 58.955256 40.908018 58.990494 41.65625 59.0625 C 44.649179 59.350522 47.65726 60.552189 50.6875 61.84375 C 53.71774 63.135311 56.760641 64.532794 60.09375 64.90625 C 62.545085 65.180908 65.139114 64.763449 67.65625 63.375 C 66.077913 71.711684 58.806181 78 50 78 C 40.605342 78 32.941794 70.855132 32.09375 61.6875 A 2.0021962 2.0021962 0 0 0 32.125 61.65625 C 34.784072 59.881027 37.135665 59.134232 39.40625 59 z "></path></svg>